<?xml version="1.0" encoding="UTF-8"?><svg xmlns="http://www.w3.org/2000/svg" xmlns:xlink="http://www.w3.org/1999/xlink" viewBox="0 0 250.45 177.36"><defs><style>.cls-1{fill:url(#linear-gradient-2);}.cls-2{clip-path:url(#clippath-16);}.cls-3{fill:#fff;}.cls-4{clip-path:url(#clippath-33);}.cls-5{clip-path:url(#clippath-32);}.cls-6{clip-path:url(#clippath-2);}.cls-7,.cls-8{isolation:isolate;}.cls-9{clip-path:url(#clippath-25);}.cls-10{clip-path:url(#clippath-26);}.cls-11{clip-path:url(#clippath-34);}.cls-12{clip-path:url(#clippath-4);}.cls-13{clip-path:url(#clippath-27);}.cls-14{clip-path:url(#clippath-12);}.cls-15{clip-path:url(#clippath-24);}.cls-16{clip-path:url(#clippath-30);}.cls-17{clip-path:url(#clippath);}.cls-18{fill:none;}.cls-19{clip-path:url(#clippath-31);}.cls-20{fill:#ce8129;}.cls-21{clip-path:url(#clippath-29);}.cls-22{clip-path:url(#clippath-14);}.cls-23{fill:url(#linear-gradient-3);}.cls-24{fill:url(#linear-gradient);}.cls-25{fill:url(#linear-gradient-4);}.cls-8{mix-blend-mode:multiply;}.cls-26{clip-path:url(#clippath-28);}.cls-27{opacity:.71;}.cls-28{clip-path:url(#clippath-35);}</style><clipPath id="clippath"><path class="cls-3" d="M356.92,250.8v17.04h3.95v-17.04c0-6.59,5.36-11.96,11.96-11.96s11.96,5.36,11.96,11.96v17.04h3.95v-17.04c0-8.77-7.14-15.91-15.91-15.91s-15.91,7.14-15.91,15.91"/></clipPath><clipPath id="clippath-2"><path class="cls-3" d="M356.92,250.8v17.04h3.95v-17.04c0-6.59,5.36-11.96,11.96-11.96s11.96,5.36,11.96,11.96v17.04h3.95v-17.04c0-8.77-7.14-15.91-15.91-15.91s-15.91,7.14-15.91,15.91"/></clipPath><clipPath id="clippath-4"><path class="cls-3" d="M343.37,250.8v17.04h3.95v-17.04c0-6.59,5.36-11.96,11.96-11.96s11.96,5.36,11.96,11.96v17.04h3.95v-17.04c0-8.77-7.14-15.91-15.91-15.91s-15.91,7.14-15.91,15.91"/></clipPath><clipPath id="clippath-6"><path class="cls-18" d="M356.92,206.98v17.03h3.95v-17.03c0-6.59,5.36-11.95,11.95-11.95s11.95,5.36,11.95,11.95v17.03h3.95v-17.03c0-8.77-7.14-15.91-15.91-15.91s-15.91,7.14-15.91,15.91"/></clipPath><clipPath id="clippath-8"><path class="cls-18" d="M356.92,206.98v17.03h3.95v-17.03c0-6.59,5.36-11.95,11.95-11.95s11.95,5.36,11.95,11.95v17.03h3.95v-17.03c0-8.77-7.14-15.91-15.91-15.91s-15.91,7.14-15.91,15.91"/></clipPath><clipPath id="clippath-10"><path class="cls-18" d="M343.37,206.98v17.03h3.95v-17.03c0-6.59,5.36-11.95,11.95-11.95s11.95,5.36,11.95,11.95v17.03h3.95v-17.03c0-8.77-7.14-15.91-15.91-15.91s-15.91,7.14-15.91,15.91"/></clipPath><clipPath id="clippath-12"><path class="cls-3" d="M197.6,250.8v17.04h3.95v-17.04c0-6.59,5.36-11.96,11.96-11.96s11.96,5.36,11.96,11.96v17.04h3.95v-17.04c0-8.77-7.14-15.91-15.91-15.91s-15.91,7.14-15.91,15.91"/></clipPath><clipPath id="clippath-14"><path class="cls-3" d="M197.6,250.8v17.04h3.95v-17.04c0-6.59,5.36-11.96,11.96-11.96s11.96,5.36,11.96,11.96v17.04h3.95v-17.04c0-8.77-7.14-15.91-15.91-15.91s-15.91,7.14-15.91,15.91"/></clipPath><clipPath id="clippath-16"><path class="cls-3" d="M184.05,250.8v17.04h3.95v-17.04c0-6.59,5.36-11.96,11.96-11.96s11.96,5.36,11.96,11.96v17.04h3.95v-17.04c0-8.77-7.14-15.91-15.91-15.91s-15.91,7.14-15.91,15.91"/></clipPath><clipPath id="clippath-18"><path class="cls-18" d="M370.72,87.13v46.91h10.89v-46.91c0-18.16,14.77-32.93,32.92-32.93s32.93,14.77,32.93,32.93v46.91h10.89v-46.91c0-24.16-19.65-43.81-43.81-43.81s-43.81,19.66-43.81,43.81"/></clipPath><clipPath id="clippath-20"><path class="cls-18" d="M370.72,87.13v46.91h10.89v-46.91c0-18.16,14.77-32.93,32.92-32.93s32.93,14.77,32.93,32.93v46.91h10.89v-46.91c0-24.16-19.65-43.81-43.81-43.81s-43.81,19.66-43.81,43.81"/></clipPath><clipPath id="clippath-22"><path class="cls-18" d="M333.4,87.13v46.91h10.89v-46.91c0-18.16,14.77-32.93,32.92-32.93s32.93,14.77,32.93,32.93v46.91h10.89v-46.91c0-24.16-19.66-43.81-43.81-43.81s-43.81,19.66-43.81,43.81"/></clipPath><linearGradient id="linear-gradient" x1="58.49" y1="110.25" x2="180.71" y2="31.22" gradientTransform="matrix(1, 0, 0, 1, 0, 0)" gradientUnits="userSpaceOnUse"><stop offset=".27" stop-color="#f8d038"/><stop offset="1" stop-color="#f27123"/></linearGradient><clipPath id="clippath-24"><path class="cls-18" d="M99.72,43.65v46.91h10.89V43.65c0-18.16,14.77-32.93,32.92-32.93s32.93,14.77,32.93,32.93v46.91h10.89V43.65C187.35,19.49,167.69-.16,143.53-.16s-43.81,19.66-43.81,43.81"/></clipPath><clipPath id="clippath-25"><rect class="cls-18" x="-372.42" y="-237.5" width="994.72" height="704.1"/></clipPath><clipPath id="clippath-26"><rect class="cls-18" x="174.56" y="51.94" width="16.54" height="46.07"/></clipPath><clipPath id="clippath-27"><rect class="cls-18" x="175.69" y="52.42" width="11.86" height="38.5"/></clipPath><clipPath id="clippath-28"><path class="cls-18" d="M99.72,43.65v46.91h10.89V43.65c0-18.16,14.77-32.93,32.92-32.93s32.93,14.77,32.93,32.93v46.91h10.89V43.65C187.35,19.49,167.69-.16,143.53-.16s-43.81,19.66-43.81,43.81"/></clipPath><clipPath id="clippath-29"><rect class="cls-18" x="-372.42" y="-237.5" width="994.72" height="704.1"/></clipPath><clipPath id="clippath-30"><rect class="cls-18" x="107.22" y="10.59" width="20.08" height="11.81"/></clipPath><clipPath id="clippath-31"><rect class="cls-18" x="107.86" y="10.98" width="18.75" height="11.01"/></clipPath><clipPath id="clippath-32"><path class="cls-18" d="M62.4,43.65v46.91h10.89V43.65c0-18.16,14.77-32.93,32.92-32.93s32.93,14.77,32.93,32.93v46.91h10.89V43.65C150.03,19.49,130.37-.16,106.21-.16S62.4,19.49,62.4,43.65"/></clipPath><clipPath id="clippath-33"><rect class="cls-18" x="-372.42" y="-237.5" width="994.72" height="704.1"/></clipPath><clipPath id="clippath-34"><rect class="cls-18" x="136.75" y="54.3" width="16.54" height="13"/></clipPath><clipPath id="clippath-35"><rect class="cls-18" x="137.15" y="54.88" width="13.78" height="11.75"/></clipPath><linearGradient id="linear-gradient-2" x1="36.82" y1="68.58" x2="115.87" y2="68.58" gradientTransform="matrix(1, 0, 0, 1, 0, 0)" gradientUnits="userSpaceOnUse"><stop offset=".37" stop-color="#f8d038"/><stop offset="1" stop-color="#f27123"/></linearGradient><linearGradient id="linear-gradient-3" x1="39.04" y1="101.15" x2="140.08" y2="32.3" xlink:href="#linear-gradient-2"/><linearGradient id="linear-gradient-4" x1="100.04" x2="187.32" xlink:href="#linear-gradient-2"/></defs><g class="cls-7"><g id="Layer_1"><g class="cls-27"><g><path class="cls-3" d="M356.92,250.8v17.04h3.95v-17.04c0-6.59,5.36-11.96,11.96-11.96s11.96,5.36,11.96,11.96v17.04h3.95v-17.04c0-8.77-7.14-15.91-15.91-15.91s-15.91,7.14-15.91,15.91"/><g class="cls-17"><rect class="cls-3" x="185.46" y="148.7" width="361.24" height="255.7"/></g></g><g><path class="cls-3" d="M356.92,250.8v17.04h3.95v-17.04c0-6.59,5.36-11.96,11.96-11.96s11.96,5.36,11.96,11.96v17.04h3.95v-17.04c0-8.77-7.14-15.91-15.91-15.91s-15.91,7.14-15.91,15.91"/><g class="cls-6"><rect class="cls-3" x="185.46" y="148.7" width="361.24" height="255.7"/></g></g><g><path class="cls-3" d="M343.37,250.8v17.04h3.95v-17.04c0-6.59,5.36-11.96,11.96-11.96s11.96,5.36,11.96,11.96v17.04h3.95v-17.04c0-8.77-7.14-15.91-15.91-15.91s-15.91,7.14-15.91,15.91"/><g class="cls-12"><rect class="cls-3" x="185.46" y="148.7" width="361.24" height="255.7"/></g></g></g><g class="cls-27"><g><path class="cls-3" d="M197.6,250.8v17.04h3.95v-17.04c0-6.59,5.36-11.96,11.96-11.96s11.96,5.36,11.96,11.96v17.04h3.95v-17.04c0-8.77-7.14-15.91-15.91-15.91s-15.91,7.14-15.91,15.91"/><g class="cls-14"><rect class="cls-3" x="26.14" y="148.7" width="361.24" height="255.7"/></g></g><g><path class="cls-3" d="M197.6,250.8v17.04h3.95v-17.04c0-6.59,5.36-11.96,11.96-11.96s11.96,5.36,11.96,11.96v17.04h3.95v-17.04c0-8.77-7.14-15.91-15.91-15.91s-15.91,7.14-15.91,15.91"/><g class="cls-22"><rect class="cls-3" x="26.14" y="148.7" width="361.24" height="255.7"/></g></g><g><path class="cls-3" d="M184.05,250.8v17.04h3.95v-17.04c0-6.59,5.36-11.96,11.96-11.96s11.96,5.36,11.96,11.96v17.04h3.95v-17.04c0-8.77-7.14-15.91-15.91-15.91s-15.91,7.14-15.91,15.91"/><g class="cls-2"><rect class="cls-3" x="26.14" y="148.7" width="361.24" height="255.7"/></g></g></g><g><g><path class="cls-24" d="M100.04,43.66v46.74h10.85V43.66c0-18.09,14.72-32.81,32.8-32.81s32.81,14.72,32.81,32.81v46.74h10.85V43.66c0-24.07-19.58-43.66-43.66-43.66s-43.65,19.58-43.65,43.66"/><g class="cls-27"><g class="cls-15"><g class="cls-9"><g class="cls-8"><g class="cls-10"><g class="cls-13"><path class="cls-20" d="M175.69,52.42v22.8c3.9,6.65,6.15,14.38,6.15,22.63h8.71v-5.48c0-26.17-8.7-34.69-14.85-39.95"/></g></g></g></g></g><g class="cls-26"><g class="cls-21"><g class="cls-8"><g class="cls-16"><g class="cls-19"><path class="cls-20" d="M112.92,10.98c-1.81,1.68-3.5,3.48-5.07,5.39,4.64,1.12,8.98,3.04,12.84,5.62,1.8-1.83,3.79-3.48,5.91-4.94-4.08-2.82-8.71-4.91-13.69-6.07"/></g></g></g></g></g><g class="cls-5"><g class="cls-4"><g class="cls-8"><g class="cls-11"><g class="cls-28"><path class="cls-20" d="M152.68,66.63l-1.57-9.74-13.96-2.01v7.8c4.78-.44,11.18,.88,15.53,3.95"/></g></g></g></g></g></g><path class="cls-1" d="M62.4,90.4h10.85c0-18.08,14.71-32.79,32.79-32.79s32.79,14.71,32.79,32.79h10.85c0-24.06-19.58-43.64-43.64-43.64s-43.64,19.58-43.64,43.64"/><path class="cls-23" d="M62.38,43.66v46.74h10.85V43.66c0-18.09,14.72-32.81,32.81-32.81s32.81,14.72,32.81,32.81v46.41c.02,.11,.05,.22,.07,.33h10.78V43.66C149.7,19.58,130.11,0,106.04,0S62.38,19.58,62.38,43.66"/><path class="cls-25" d="M100.04,90.4h10.85c0-18.08,14.71-32.79,32.79-32.79s32.79,14.71,32.79,32.79h10.85c0-24.06-19.58-43.64-43.64-43.64s-43.64,19.58-43.64,43.64"/></g><g><g><path class="cls-3" d="M198.26,166.41h-15.31c.17-1.06,.45-1.91,.89-2.49,.7-.93,1.77-1.4,3.2-1.4h1.19v-2.11h-1.25c-.18,0-.32,.03-.49,.04-.08-2.59-.64-4.5-1.71-5.67-1.91-2.08-4.27-3.16-5.16-3.54-.48,.2-3.42,1.65-5.25,3.57-1.13,1.18-1.71,3.08-1.8,5.64-.17,0-.32-.04-.5-.04h-1.25v2.11h1.19c1.43,0,2.5,.47,3.2,1.4,.43,.58,.72,1.43,.89,2.49h-14.48v-17.72h-2.67v19.93h41.99v-19.93h-2.67v17.72Zm-16.55-4.12c-.81,.91-1.31,2.29-1.53,4.12h-1.3c-.22-1.82-.73-3.2-1.53-4.12-.53-.61-1.23-1.06-2.06-1.37,.02-2.18,.4-3.72,1.16-4.59,.91-1.04,.9-.97,3.12-2.41,2.4,1.47,2.36,1.39,3.17,2.36,.69,.84,1.03,2.39,1.05,4.64-.84,.31-1.53,.76-2.07,1.37Z"/><polygon class="cls-3" points="204.52 151.61 204.52 164.89 204.52 168.62 207.2 168.62 207.2 165.08 207.2 151.8 207.2 148.69 204.52 148.69 204.52 151.61"/><path class="cls-3" d="M114.69,171.61c-.05,.07-.11,.13-.16,.19,.03-.04,.07-.07,.11-.11,.02-.03,.03-.06,.05-.09Z"/><path class="cls-3" d="M142.29,158.2c-1.11,1.25-1.66,3.36-1.66,6.32v1.89h-20.69c-.93,0-1.4-.51-1.4-1.52v-8.58l-2.73,.02v12.99c0,2.24-1.37,4.37-3.28,5.36-.09,.05-.18,.09-.27,.13-.17,.08-.35,.13-.52,.19-.54,.16-1.12,.23-1.73,.24-.36-.01-.7-.04-1.03-.09-.16-.03-.32-.07-.47-.11-.22-.05-.43-.11-.63-.19-.19-.07-.38-.14-.56-.23-.13-.06-.25-.13-.37-.2-.2-.11-.4-.23-.58-.36-.27-.2-.47-.44-.69-.68-.48,.44-.95,.89-1.41,1.34,.18,.2,.37,.4,.57,.58h0c.36,.31,.74,.6,1.15,.85,.02,.01,.04,.02,.06,.03,.39,.23,.79,.44,1.21,.6,.14,.06,.29,.09,.43,.13,.32,.11,.64,.22,.98,.28,.51,.1,1.03,.16,1.57,.16,4.58,0,8.14-3.73,8.14-8.31v-.56c.29,.05,.56,.13,.9,.13h35.69v-12.31h-7.41c-2.41,0-4.16,.63-5.27,1.88Zm9.94,.23v7.98h-8.87v-1.89c0-2.19,.35-3.76,1.06-4.69,.7-.93,1.77-1.4,3.2-1.4h4.61Z"/><path class="cls-3" d="M59.37,166.41h-14.09v-1.89c0-2.19,.35-3.76,1.06-4.69,.7-.93,1.77-1.4,3.2-1.4h1.94v-2.11h-2c-2.41,0-4.16,.63-5.27,1.88-1.11,1.25-1.66,3.36-1.66,6.32v4.1h19.61v-19.93h-2.78v17.72Z"/><path class="cls-3" d="M105.95,168.62v-12.31h-7.41c-2.41,0-4.16,.63-5.27,1.88-1.11,1.25-1.66,3.36-1.66,6.32v1.89h-9.64v-1.89c0-2.96-.56-5.07-1.66-6.32-1.11-1.25-2.86-1.88-5.27-1.88h-7.41v12.31h11.61v.71c0,2.24-1.37,4.37-3.28,5.36-.09,.05-.18,.09-.27,.13-.17,.08-.35,.13-.52,.19-.54,.16-1.12,.23-1.73,.24-.36-.01-.7-.04-1.03-.09-.16-.03-.32-.07-.47-.11-.22-.05-.43-.11-.63-.19-.19-.07-.38-.14-.56-.23-.13-.06-.25-.13-.37-.2-.2-.11-.4-.23-.58-.36-.25-.18-.43-.41-.63-.63-.48,.43-.96,.88-1.43,1.32,.17,.19,.35,.38,.54,.55h0c.36,.31,.74,.6,1.15,.85,.02,.01,.04,.02,.06,.03,.39,.23,.79,.44,1.21,.6,.14,.06,.29,.09,.43,.13,.32,.11,.64,.22,.98,.28,.51,.1,1.03,.16,1.57,.16h0c4.58,0,8.14-3.73,8.14-8.31v-.43h24.13Zm-26.71-2.57v.36h-8.87v-7.98h4.61c1.43,0,2.5,.47,3.2,1.4,.7,.93,1.06,2.5,1.06,4.69v1.53Zm23.98,.36h-8.87v-1.89c0-2.19,.35-3.76,1.06-4.69,.7-.93,1.77-1.4,3.2-1.4h4.61v7.98Z"/></g><g><path class="cls-3" d="M71.09,135.06h2.99c.79,0,1.19-.39,1.22-1.18l.83-17.68,5.35,14.41c.26,.73,.79,1.1,1.57,1.1h2.52c.79,0,1.33-.37,1.61-1.1l5.35-14.37,.79,17.64c.03,.79,.43,1.18,1.22,1.18h4.27l-1.63-25.12c-.03-.79-.45-1.18-1.26-1.18h-4.17c-.79,0-1.31,.37-1.57,1.1l-5.79,15.63-5.83-15.63c-.29-.74-.83-1.1-1.62-1.1h-4.17c-.81,0-1.23,.39-1.26,1.18l-1.53,23.94c-.03,.79,.34,1.18,1.1,1.18Z"/><path class="cls-3" d="M104.32,135.06h16.97v-3.39c0-.79-.39-1.18-1.18-1.18h-11.14v-6.85h10.08c.79,0,1.18-.39,1.18-1.18v-2.05c0-.79-.39-1.18-1.18-1.18h-10.08v-5.91h10.75c.79,0,1.18-.39,1.18-1.18v-2.21c0-.79-.39-1.18-1.18-1.18h-15.39c-.79,0-1.18,.39-1.18,1.18v23.94c0,.79,.4,1.18,1.18,1.18Z"/><path class="cls-3" d="M126.65,135.06h3.46c.79,0,1.18-.39,1.18-1.18v-8.27c1,.21,1.89,.36,2.68,.43l4.92,7.99c.42,.68,1.02,1.02,1.81,1.02h5.09l-6.46-9.53c3.54-1.13,5.31-3.87,5.31-8.23,0-1.79-.29-3.28-.87-4.49-.58-1.21-1.39-2.11-2.44-2.72-1.05-.6-2.15-1.02-3.29-1.26-1.14-.24-2.46-.36-3.96-.36-2.73,0-5.22,.19-7.48,.55-.76,.13-1.14,.59-1.14,1.38v23.46c0,.79,.4,1.18,1.18,1.18Zm4.64-22.16c.63-.16,1.56-.24,2.8-.24,3.31,0,4.96,1.6,4.96,4.8,0,1.78-.44,3.01-1.32,3.66-.88,.66-2.11,.99-3.68,.99-.63,0-1.55-.08-2.76-.24v-8.97Z"/><path class="cls-3" d="M31.63,109.94c0-.79-.39-1.18-1.18-1.18h-4.68v25.12c0,.79,.39,1.18,1.18,1.18h14.49c.79,0,1.18-.39,1.18-1.18v-3.39h-10.98v-20.55Z"/><path class="cls-3" d="M14.2,108.76h-4.06c-.79,0-1.31,.37-1.57,1.1L.22,133.96c-.26,.73,0,1.1,.79,1.1h3.58c.79,0,1.3-.38,1.54-1.14l1.61-5.08v-.02c1.26,.38,2.65,.61,4.23,.61,1.67,0,3.14-.2,4.43-.59h0l1.69,5.12c.24,.73,.75,1.1,1.54,1.1h4.54l-8.39-25.2c-.26-.74-.79-1.1-1.57-1.1Zm.41,15.41c-.71,.3-1.56,.45-2.56,.45s-1.85-.15-2.56-.45c-.1-.04-.17-.1-.26-.14l2.88-9.83,2.8,9.81c-.1,.05-.19,.12-.3,.16Z"/><path class="cls-3" d="M59.68,109.86c-.26-.74-.79-1.1-1.57-1.1h-4.06c-.79,0-1.31,.37-1.57,1.1l-8.35,24.09c-.26,.73,0,1.1,.79,1.1h3.58c.79,0,1.3-.38,1.54-1.14l1.61-5.08v-.02c1.26,.38,2.65,.61,4.23,.61,1.67,0,3.14-.2,4.43-.59h0l1.69,5.12c.24,.73,.75,1.1,1.54,1.1h4.54l-8.39-25.2Zm-1.16,14.31c-.71,.3-1.56,.45-2.56,.45s-1.85-.15-2.56-.45c-.1-.04-.17-.1-.26-.14l2.88-9.83,2.8,9.81c-.1,.05-.19,.12-.3,.16Z"/><path class="cls-3" d="M161.02,133.6l.83-17.68,5.35,14.41c.26,.73,.79,1.1,1.57,1.1h2.52c.79,0,1.33-.37,1.62-1.1l5.35-14.37,.79,17.64c.03,.79,.43,1.18,1.22,1.18h4.26l-1.62-25.12c-.03-.79-.45-1.18-1.26-1.18h-4.17c-.79,0-1.31,.37-1.57,1.1l-5.79,15.63-5.83-15.63c-.29-.74-.83-1.1-1.61-1.1h-4.17c-.81,0-1.23,.4-1.26,1.18l-1.53,23.94c-.03,.79,.34,1.18,1.1,1.18h2.99c.79,0,1.19-.39,1.22-1.18Z"/><path class="cls-3" d="M218.86,109.66c0-.79-.39-1.18-1.18-1.18h-4.68v25.12c0,.79,.39,1.18,1.18,1.18h14.49c.79,0,1.18-.4,1.18-1.18v-3.39h-10.98v-20.55Z"/><path class="cls-3" d="M238.63,130.21v-20.55c0-.79-.39-1.18-1.18-1.18h-4.68v25.12c0,.79,.39,1.18,1.18,1.18h14.49c.79,0,1.18-.4,1.18-1.18v-3.39h-10.98Z"/><path class="cls-3" d="M202.05,109.58c-.26-.74-.79-1.1-1.57-1.1h-4.06c-.79,0-1.31,.37-1.57,1.1l-8.35,24.09c-.26,.73,0,1.1,.79,1.1h3.58c.79,0,1.3-.38,1.54-1.14l1.61-5.08v-.02c1.26,.38,2.65,.61,4.23,.61,1.67,0,3.14-.2,4.43-.59h0l1.69,5.12c.24,.73,.75,1.1,1.54,1.1h4.54l-.36-1.1-8.03-24.09Zm-1.16,14.31c-.71,.3-1.56,.45-2.56,.45s-1.85-.15-2.56-.45c-.1-.04-.17-.1-.26-.14l2.88-9.83,2.8,9.81c-.1,.05-.19,.12-.3,.16Z"/></g></g></g></g></g></svg>