<?xml version="1.0" encoding="UTF-8"?><svg id="Layer_1" xmlns="http://www.w3.org/2000/svg" xmlns:xlink="http://www.w3.org/1999/xlink" viewBox="0 0 34.13 34.13"><defs><style>.cls-1,.cls-2{fill:#fff;}.cls-2{fill-rule:evenodd;}.cls-3{clip-path:url(#clippath-2);}.cls-4{fill:#ec1655;}.cls-5{clip-path:url(#clippath-4);}.cls-6{clip-path:url(#clippath);}.cls-7{fill:none;}.cls-8{fill:#0cbac6;}.cls-9{opacity:.71;}</style><clipPath id="clippath"><path class="cls-1" d="M99.35,16.41v17.04h3.95V16.41c0-6.59,5.36-11.96,11.96-11.96s11.96,5.36,11.96,11.96v17.04h3.95V16.41c0-8.77-7.14-15.91-15.91-15.91s-15.91,7.14-15.91,15.91"/></clipPath><clipPath id="clippath-2"><path class="cls-1" d="M99.35,16.41v17.04h3.95V16.41c0-6.59,5.36-11.96,11.96-11.96s11.96,5.36,11.96,11.96v17.04h3.95V16.41c0-8.77-7.14-15.91-15.91-15.91s-15.91,7.14-15.91,15.91"/></clipPath><clipPath id="clippath-4"><path class="cls-1" d="M85.79,16.41v17.04h3.95V16.41c0-6.59,5.36-11.96,11.96-11.96s11.96,5.36,11.96,11.96v17.04h3.95V16.41c0-8.77-7.14-15.91-15.91-15.91s-15.91,7.14-15.91,15.91"/></clipPath><clipPath id="clippath-6"><path class="cls-7" d="M272.46-147.26v46.91h10.89v-46.91c0-18.16,14.77-32.93,32.92-32.93s32.93,14.77,32.93,32.93v46.91h10.89v-46.91c0-24.16-19.65-43.81-43.81-43.81s-43.81,19.66-43.81,43.81"/></clipPath><clipPath id="clippath-8"><path class="cls-7" d="M272.46-147.26v46.91h10.89v-46.91c0-18.16,14.77-32.93,32.92-32.93s32.93,14.77,32.93,32.93v46.91h10.89v-46.91c0-24.16-19.65-43.81-43.81-43.81s-43.81,19.66-43.81,43.81"/></clipPath><clipPath id="clippath-10"><path class="cls-7" d="M235.14-147.26v46.91h10.89v-46.91c0-18.16,14.77-32.93,32.92-32.93s32.93,14.77,32.93,32.93v46.91h10.89v-46.91c0-24.16-19.66-43.81-43.81-43.81s-43.81,19.66-43.81,43.81"/></clipPath><clipPath id="clippath-12"><path class="cls-7" d="M1.47-190.74v46.91H12.35v-46.91c0-18.16,14.77-32.93,32.92-32.93s32.93,14.77,32.93,32.93v46.91h10.89v-46.91c0-24.16-19.65-43.81-43.81-43.81S1.47-214.9,1.47-190.74"/></clipPath><clipPath id="clippath-14"><path class="cls-7" d="M1.47-190.74v46.91H12.35v-46.91c0-18.16,14.77-32.93,32.92-32.93s32.93,14.77,32.93,32.93v46.91h10.89v-46.91c0-24.16-19.65-43.81-43.81-43.81S1.47-214.9,1.47-190.74"/></clipPath><clipPath id="clippath-16"><path class="cls-7" d="M-35.85-190.74v46.91h10.89v-46.91c0-18.16,14.77-32.93,32.92-32.93s32.93,14.77,32.93,32.93v46.91h10.89v-46.91c0-24.16-19.66-43.81-43.81-43.81s-43.81,19.66-43.81,43.81"/></clipPath></defs><g><path class="cls-1" d="M25.81,34.07H8.26c-4.55,0-8.26-3.71-8.26-8.26V8.26C0,3.71,3.71,0,8.26,0H25.81c4.55,0,8.26,3.71,8.26,8.26V25.81c0,4.55-3.71,8.26-8.26,8.26ZM8.26,.5C3.98,.5,.5,3.98,.5,8.26V25.81c0,4.28,3.48,7.76,7.76,7.76H25.81c4.28,0,7.76-3.48,7.76-7.76V8.26c0-4.28-3.48-7.76-7.76-7.76H8.26Z"/><g><path class="cls-1" d="M14.66,16.97l.04,.03c.12,.08,.2,.2,.32,.29,.35,.28,.75,.43,1.2,.46,1.07,.07,2.01-.74,2.13-1.8,0-.05,0-.1,0-.16,0-3.19,0-6.38,0-9.57q0-.22,.21-.22c.48,0,.97,0,1.45,0,.05,0,.09,0,.13,.02h0s.03,.06,.04,.09c.19,.86,.64,1.55,1.35,2.06,.04,.03,.08,.07,.12,.11l.09,.08c.11,.07,.2,.17,.29,.25,.39,.33,.84,.55,1.33,.68,.04,.01,.09,.01,.12,.05h0s.02,.08,.02,.11c0,.56,0,1.13,0,1.69,0,.13-.02,.14-.15,.14-.41,0-.82-.06-1.22-.15-.69-.16-1.32-.44-1.91-.82-.03-.02-.06-.06-.1-.05-.04,.02-.02,.07-.02,.11,0,1.58,0,3.17,0,4.75,0,1.11-.36,2.1-1.08,2.94-.77,.9-1.75,1.42-2.92,1.56-.9,.11-1.76-.05-2.58-.46-.13-.07-.26-.14-.38-.23l-.11-.1c-.28-.23-.48-.53-.66-.84-.28-.47-.46-.99-.55-1.53-.05-.31-.08-.62-.06-.94,.06-1.01,.4-1.92,1.05-2.7,.55-.66,1.23-1.11,2.04-1.39,.34-.12,.68-.19,1.04-.21,.07,0,.13-.02,.2-.02,.03,0,.06,0,.09,.02h0s.01,.07,.01,.11c0,.57,0,1.14,0,1.71,0,.02,0,.04,0,.06,0,.06-.03,.08-.09,.06-.16-.04-.32-.06-.48-.07-.25-.01-.5,.02-.73,.11-.78,.29-1.26,.85-1.36,1.68-.1,.82,.22,1.47,.9,1.94,.06,.04,.12,.08,.17,.12Z"/><path class="cls-4" d="M13.18,18.96s.05,.02,.07,.03c.51,.31,1.06,.51,1.65,.61,.3,.05,.6,.07,.9,.05,1-.05,1.9-.39,2.68-1.03,.75-.62,1.25-1.4,1.49-2.34,.08-.3,.12-.6,.14-.9,0-.18,0-.35,0-.53,0-1.51,0-3.02,0-4.53v-.1s.06,.02,.08,.03c.54,.37,1.12,.64,1.75,.81,.35,.09,.7,.16,1.05,.19,.15,.01,.3,.01,.45,.02,.07,0,.07,0,.07-.07,0-.07,0-.14,0-.22,0-.51,0-1.02,0-1.53,0-.03,0-.06,0-.1,.13,.02,.27,.04,.4,.05,.08,0,.17,.01,.25,.01,.04,0,.06,.01,.05,.05,0,.02,0,.03,0,.05v2.22s0,.03,0,.04c0,.06,0,.07-.07,.07-.23,0-.46-.02-.69-.05-.47-.06-.92-.18-1.36-.35-.42-.16-.82-.37-1.19-.63-.02-.02-.05-.03-.08-.05v.1c0,1.61,0,3.23,0,4.84,0,.86-.22,1.66-.68,2.39-.55,.88-1.32,1.5-2.3,1.85-.59,.22-1.21,.3-1.84,.25-1.06-.08-1.98-.48-2.77-1.21-.02-.02-.04-.04-.06-.06Z"/><path class="cls-8" d="M20.14,6.04s-.06,0-.09,0c-.52,0-1.04,0-1.56,0q-.12,0-.12,.12c0,3.17,0,6.35,0,9.52,0,.22-.02,.44-.09,.65-.24,.74-.74,1.23-1.5,1.41-.82,.19-1.51-.06-2.06-.7,0-.01-.02-.02-.02-.04,.16,.06,.32,.13,.48,.16,.53,.11,1.03,.02,1.5-.26,.53-.33,.85-.81,.96-1.43,.02-.12,.02-.23,.02-.35,0-3.18,0-6.36,0-9.54,0-.15-.02-.13,.13-.13,.73,0,1.47,0,2.2,0,.02,0,.03,0,.05,0,.08,0,.08,0,.08,.08,0,.17,0,.34,.03,.51Z"/><path class="cls-8" d="M16.22,11.26c-.45,.01-.89,.09-1.31,.23-.62,.2-1.16,.53-1.64,.96-.63,.58-1.05,1.28-1.29,2.09-.08,.29-.13,.59-.15,.89-.01,.18-.02,.36,0,.54,.03,.5,.13,.99,.32,1.46,.21,.52,.51,.99,.9,1.4,0,0,.01,.02,.02,.03-.09-.04-.16-.1-.23-.16-.73-.58-1.24-1.3-1.52-2.19-.1-.31-.16-.62-.19-.95-.02-.23-.02-.47,0-.7,.04-.54,.16-1.05,.38-1.54,.23-.51,.55-.97,.95-1.36,.47-.46,1.01-.8,1.63-1.02,.39-.14,.79-.22,1.2-.25,.3-.02,.59-.02,.89,.02,.04,0,.06,.01,.06,.06,0,.16,0,.33,0,.49Z"/><path class="cls-4" d="M14.66,16.97c-.18-.08-.34-.2-.48-.34-.36-.34-.57-.76-.62-1.25-.12-1.03,.53-1.92,1.44-2.19,.39-.12,.77-.12,1.16-.02,.02,0,.04,.02,.07,0,.01-.03,0-.06,0-.09,0-.58,0-1.15,0-1.73,0-.03,0-.06,0-.09,.22-.02,.44,0,.66,.03,.03,0,.04,.02,.04,.05,0,.02,0,.03,0,.05,0,.76,0,1.53,0,2.29,0,.03,0,.06-.01,.09-.1-.02-.2-.05-.3-.06-.59-.08-1.12,.06-1.59,.42-.41,.32-.66,.75-.75,1.27-.09,.55,.02,1.05,.34,1.51,.01,.02,.02,.04,.04,.06Z"/><path class="cls-4" d="M21.66,8.3c-.22-.13-.42-.3-.6-.48-.48-.49-.78-1.08-.91-1.76,0,0,0-.01,0-.02,.21-.01,.41,0,.62,0,.04,0,.05,.01,.05,.05,0,.01,0,.03,0,.04-.01,.58,.16,1.11,.45,1.61,.1,.18,.22,.34,.35,.5,.01,.02,.04,.03,.04,.06Z"/><path class="cls-8" d="M23.5,9.37c-.59-.13-1.11-.39-1.56-.79-.07-.06-.13-.12-.19-.19,.02,0,.04,.01,.06,.02,.36,.2,.74,.34,1.15,.41,.16,.03,.32,.04,.48,.04,.07,0,.07,0,.07,.07,0,.15,0,.3,0,.45Z"/></g><path class="cls-2" d="M6.45,22.4v1.02h1.2v3.89h1.2v-3.86h.97l.33-1.05h-3.7Zm9.8,0v1.02h1.2v3.89h1.2v-3.86h.97l.33-1.05h-3.7Zm-5.87,.58c0-.32,.26-.58,.58-.58s.58,.26,.58,.58-.26,.58-.58,.58c-.32,0-.58-.26-.58-.58Zm0,.99h1.17v3.34h-1.17v-3.34Zm1.67-1.57v4.91h1.17v-1.27l.36-.33,1.14,1.63h1.25l-1.64-2.37,1.47-1.44h-1.42l-1.17,1.16v-2.29h-1.17Zm12.61,0v4.91h1.17v-1.27l.36-.33,1.14,1.63h1.25l-1.64-2.37,1.47-1.44h-1.42l-1.17,1.16v-2.29h-1.17Z"/><path class="cls-2" d="M21.92,27.34c1.12,0,2.03-.9,2.03-2.01s-.91-2.02-2.03-2.02h-.03c-1.12,0-2.03,.9-2.03,2.02s.91,2.01,2.03,2.01h.03Zm-1-2.01c0-.54,.44-.98,.99-.98s.99,.44,.99,.98-.44,.98-.99,.98c-.55,0-.99-.44-.99-.98Z"/></g><g class="cls-9"><g><path class="cls-1" d="M99.35,16.41v17.04h3.95V16.41c0-6.59,5.36-11.96,11.96-11.96s11.96,5.36,11.96,11.96v17.04h3.95V16.41c0-8.77-7.14-15.91-15.91-15.91s-15.91,7.14-15.91,15.91"/><g class="cls-6"><rect class="cls-1" x="-72.12" y="-85.69" width="361.24" height="255.7"/></g></g><g><path class="cls-1" d="M99.35,16.41v17.04h3.95V16.41c0-6.59,5.36-11.96,11.96-11.96s11.96,5.36,11.96,11.96v17.04h3.95V16.41c0-8.77-7.14-15.91-15.91-15.91s-15.91,7.14-15.91,15.91"/><g class="cls-3"><rect class="cls-1" x="-72.12" y="-85.69" width="361.24" height="255.7"/></g></g><g><path class="cls-1" d="M85.79,16.41v17.04h3.95V16.41c0-6.59,5.36-11.96,11.96-11.96s11.96,5.36,11.96,11.96v17.04h3.95V16.41c0-8.77-7.14-15.91-15.91-15.91s-15.91,7.14-15.91,15.91"/><g class="cls-5"><rect class="cls-1" x="-72.12" y="-85.69" width="361.24" height="255.7"/></g></g></g></svg>